<?xml version="1.0" encoding="UTF-8"?><svg id="Layer_1" xmlns="http://www.w3.org/2000/svg" viewBox="0 0 463.16 153.42"><defs><style>.cls-1{fill:#fff;}.cls-2{fill:#fc3d21;}.cls-3{fill:#0b3d91;}</style></defs><g id="NASA_LOGO"><circle class="cls-3" cx="87.14" cy="76.71" r="76.71"/><circle class="cls-1" cx="82.61" cy="14.73" r=".86"/><circle class="cls-1" cx="91.44" cy="15.88" r=".86"/><circle class="cls-1" cx="103.02" cy="31.47" r=".86"/><circle class="cls-1" cx="39.5" cy="111.74" r=".86"/><circle class="cls-1" cx="41.74" cy="118.62" r=".86"/><circle class="cls-1" cx="31.07" cy="112.77" r=".64"/><circle class="cls-1" cx="66.05" cy="126.28" r=".65"/><circle class="cls-1" cx="120.9" cy="114.89" r=".64"/><circle class="cls-1" cx="136.84" cy="97.58" r=".65"/><circle class="cls-1" cx="58.71" cy="36.5" r=".64"/><circle class="cls-1" cx="76.25" cy="23.62" r=".64"/><circle class="cls-1" cx="74.35" cy="22.36" r=".64"/><circle class="cls-1" cx="72.63" cy="21.1" r=".64"/><circle class="cls-1" cx="61.46" cy="39.83" r=".64"/><circle class="cls-1" cx="87.3" cy="6.31" r=".64"/><circle class="cls-1" cx="91.54" cy="24.88" r=".64"/><circle class="cls-1" cx="84.85" cy="21.25" r=".64"/><circle class="cls-1" cx="73.38" cy="26.19" r=".64"/><circle class="cls-1" cx="123.95" cy="131.9" r=".64"/><circle class="cls-1" cx="38.41" cy="116.09" r=".65"/><circle class="cls-1" cx="83.25" cy="124.41" r=".65"/><circle class="cls-1" cx="51.76" cy="115.58" r=".65"/><circle class="cls-1" cx="57.33" cy="124.68" r=".65"/><circle class="cls-1" cx="98.38" cy="118.95" r=".64"/><circle class="cls-1" cx="121.01" cy="106.18" r=".64"/><circle class="cls-1" cx="138.17" cy="114.01" r=".64"/><circle class="cls-1" cx="144.02" cy="117.76" r=".64"/><circle class="cls-1" cx="144.98" cy="107.55" r=".64"/><circle class="cls-1" cx="59.67" cy="93.1" r=".64"/><circle class="cls-1" cx="59.91" cy="107.9" r=".86"/><circle class="cls-1" cx="65.07" cy="118.79" r=".86"/><circle class="cls-1" cx="126.87" cy="107.44" r=".86"/><circle class="cls-1" cx="149.12" cy="106.18" r=".86"/><circle class="cls-1" cx="138.11" cy="101.47" r=".86"/><circle class="cls-1" cx="126.87" cy="101.93" r=".86"/><path class="cls-1" d="M103.7,14.19l2.14-.2-2.13-.12c-.07-.41-.4-.74-.81-.79l-.2-2.13-.12,2.15c-.39.09-.68.41-.73.81l-2.19.2,2.2.12c.08.37.38.66.75.73l.2,2.19.12-2.19c.4-.07.71-.37.78-.76Z"/><path class="cls-1" d="M67.6,38l2.14-.2-2.13-.12c-.06-.41-.4-.74-.81-.79l-.2-2.13-.12,2.15c-.39.09-.68.41-.73.81l-2.19.2,2.2.12c.08.37.38.66.75.73l.2,2.19.12-2.19c.4-.06.71-.37.78-.76Z"/><path class="cls-1" d="M147.55,100.95l2.14-.2-2.13-.12c-.06-.41-.4-.74-.81-.79l-.2-2.13-.12,2.15c-.39.09-.68.41-.73.81l-2.19.2,2.2.12c.08.37.38.66.75.73l.2,2.19.12-2.19c.39-.06.71-.37.78-.76Z"/><path class="cls-1" d="M60.38,133.86l2.14-.2-2.13-.12c-.07-.41-.4-.74-.81-.79l-.2-2.13-.12,2.14c-.39.09-.68.41-.73.81l-2.19.2,2.2.12c.08.37.38.66.75.73l.2,2.19.12-2.19c.39-.06.71-.37.78-.76Z"/><path class="cls-1" d="M140.76,117.81l2.14-.2-2.13-.12c-.06-.41-.4-.74-.81-.79l-.2-2.13-.12,2.14c-.39.09-.68.41-.73.81l-2.19.2,2.2.12c.08.37.38.66.75.73l.2,2.19.12-2.19c.39-.06.71-.37.78-.76Z"/><path class="cls-2" d="M105.33,58.33c-8.92,3.47-17.62,6.56-24.96,8.86-14.92,4.67-55.72,17.31-80.38,33.25l2.06.8c15.02-8.48,24.78-11.15,34.17-14.1,10.2-3.21,43.19-10.93,58.13-15.14,5.05-1.42,10.96-3.28,17.22-5.54-1.46-2.03-2.99-4.07-4.61-6.1-.54-.69-1.09-1.36-1.64-2.03ZM116.23,73.35c-2.16,1.46-3.97,2.62-5.24,3.36-7.34,4.24-43.11,28.67-51.25,34.28-8.14,5.62-30.73,26.95-37.38,33.14l-.23,2.52c21.44-19.26,28.17-24.01,36.69-30.5,10.55-8.03,32.37-22.87,39.79-27.63,7.09-4.55,13.48-8.73,19.22-12.56-.09-.16-.19-.31-.28-.47-.43-.71-.87-1.42-1.32-2.13ZM149.75,37.95c-10.45,6.12-26.91,13.51-42.88,19.78.38.47.76.94,1.14,1.42,1.78,2.25,3.47,4.51,5.05,6.77,12.56-4.62,26.33-10.83,37.26-18.34-5.21,4.93-22.42,17.8-32.92,24.97.54.88,1.06,1.76,1.57,2.64,15.9-10.64,26.61-18.48,32.84-23.71,8.6-7.22,28.21-23.39,35.66-45.06-13.07,16.63-28.53,26.14-37.73,31.53Z"/><path class="cls-1" d="M77.27,95.7c-1.69-2.13-4.03-4.98-5.79-7.19-2.35-2.96-4.52-5.94-6.51-8.93-.65.16-1.3.32-1.95.49,2.4,3.75,5.07,7.5,7.98,11.16,2.13,2.68,4.06,4.83,5.05,6.17.2.27.6.87,1.14,1.67.62-.42,1.24-.84,1.87-1.27-.61-.66-1.21-1.36-1.79-2.09ZM89.62,106.91c-1.39-1.31-4.76-3.51-8.27-6.81-.77.53-1.56,1.07-2.34,1.61,2.26,3.19,5.35,7.11,7.76,8.25,3.64,1.72,4.62-1.38,2.84-3.06ZM108.01,59.15c-20.05-25.24-44.54-39.1-55.1-30.71-8.2,6.52-4.83,25.56,6.47,45.57.58-.2,1.16-.4,1.74-.59-11.41-19.49-14.53-37.61-6.8-43.75,9.72-7.72,33.19,6.19,52.66,30.7,4.03,5.07,7.57,10.16,10.57,15.13,11.49,19.01,15.01,36.21,7.08,43.23-2.43,2.15-9.85,2.99-19.57-1.39-.14.17.08.63.25.74,8.39,3.37,16.43,4.66,20.49,1.44,9.75-7.75,2.26-35.12-17.79-60.36Z"/><path class="cls-1" d="M22.02,62.15h12.84l10.78,18.29v-14.28c0-1.61-2.04-3.7-2.75-4.01h8.89c-.54.14-2.29,2.26-2.29,4.01v20.98c0,1.29,1.86,3.07,2.75,3.76h-12.38l-10.95-18.37v14.45c0,1.43,1.4,2.81,2.87,3.98h-9.46c1.35-.57,2.64-2.38,2.75-3.81s0-19.92,0-20.72c0-1.75-1.69-3.18-3.04-4.27Z"/><path class="cls-1" d="M139.49,90.9h17.08c-.95-.23-2.01-1.35-2.58-2.84-.57-1.49-9.63-25.91-9.63-25.91h-6.5c-1.84,1.33-3.82,2.73-5.92,4.2,0,.05-.01.11-.02.16-.28,1.72-5.37,20.13-5.68,21.04-.43,1.26-2.64,2.67-3.53,3.41h9.2c-.92-1.03-1.66-2.04-1.49-3.18.17-1.15.69-3.44.69-3.44h9.52c.43,1.15.75,2.18.92,3.15.2,1.18-1,2.49-2.06,3.41ZM131.98,80.66l3.21-10.49,4.24,10.49h-7.45ZM130.53,63.19c.47-.35.95-.7,1.42-1.05h-2.49c.25.23.66.59,1.08,1.05Z"/><path class="cls-1" d="M65.19,87.77c.17-1.15.69-3.44.69-3.44h9.52c.43,1.15.75,2.18.92,3.15.2,1.18-1,2.49-2.06,3.41h15.04c.31-.21.62-.42.94-.63-.58-.52-1.12-1.29-1.47-2.21-.57-1.49-9.63-25.91-9.63-25.91h-14.91c.72.66,2.78,2.44,2.47,4.36-.28,1.72-5.37,20.13-5.68,21.04-.43,1.26-2.64,2.67-3.53,3.41h9.2c-.92-1.03-1.66-2.04-1.49-3.18ZM69.94,70.17l4.24,10.49h-7.45l3.21-10.49Z"/><path class="cls-1" d="M117.14,76.42c-2.81,1.87-5.77,3.82-8.88,5.86,1.4.68,2.51,1.53,2.62,2.63.2,2.07-3.96,3.07-7.71,2.64-.75-.09-1.49-.28-2.19-.55-.78.5-1.57,1.01-2.37,1.52-.81.52-1.8,1.16-2.92,1.91v2.97c.75-1.46,2.38-2.77,3.64-2.84.54-.03,2.44,1.72,10.23,1.29,3.78-.21,11.09-4.24,10.98-8.89-.07-2.74-1.5-4.88-3.4-6.54ZM95.69,83.59v3.02c.69-.46,1.37-.91,2.04-1.35-1.05-.73-1.79-1.41-2.04-1.67ZM114.48,74.52c-.73-.43-1.46-.81-2.17-1.14-3.67-1.72-7.51-2.04-8.31-4.36-.57-1.64,1.03-3.15,4.93-3.1,3.9.06,7.51,2.38,8.48,3.21v-7.4c-.29.29-1.54,1.73-2.69,1.49-2.21-.46-5.96-1.06-10.26-1.03-4.93.03-9.17,3.84-9.32,8.66-.2,6.74,5.19,8.57,8.23,9.63.31.11.67.23,1.06.35,2.91-1.9,5.22-3.36,6.57-4.13.91-.52,2.09-1.27,3.48-2.19Z"/></g><path class="cls-1" d="M181.87,101.5h-14.55c-.08-1.03-.16-2.03-.24-3h14.69l.1,3Z"/><path class="cls-1" d="M210.65,101.5h-14.12l-.33-3h14.17c.1.97.19,1.97.28,3Z"/><path class="cls-1" d="M211.09,106.66h-14l-.34-3.16h14.08c.08,1.03.17,2.07.26,3.16Z"/><path class="cls-1" d="M209.05,87.53c-.74-4.85-1.7-9.94-2.86-15.29-1.16-5.34-2.49-10.39-3.99-15.13-1.49-4.75-2.93-8.7-4.32-11.87-1.39-3.17-2.87-6.23-4.43-9.17-9.13-.6-16.09-.91-20.89-.92-4.8-.02-8,.03-9.62.13-1.62.11-3.16,1.45-4.63,4.01-1.48,2.57-1.65,6.14-.53,10.7s2.28,9.12,3.48,13.67c1.19,4.55,2.16,8.99,2.92,13.33.75,4.35,1.42,8.75,2.02,13.2.26,1.91.49,4.02.7,6.31h14.8l-1.2-9.44,14.03.28,1.14,6.26.32,2.9h14.18c-.36-3.41-.73-6.41-1.12-8.97ZM177.6,72.52c-2.58-9.49-4.04-15.42-4.4-17.78-.36-2.36-.31-4.13.15-5.32.46-1.18,4.24-1.48,11.32-.88,1.94,5.56,3.28,9.46,4.03,11.72.76,2.25,1.71,6.35,2.86,12.3l-13.96-.04Z"/><path class="cls-1" d="M182.05,106.66h-14.4c-.06-1.09-.13-2.13-.19-3.16h14.48l.11,3.16Z"/><path class="cls-1" d="M232.83,101.5h-15.12c-.09-.95-.2-1.95-.34-3h15.02c.17,1.05.32,2.05.44,3Z"/><path class="cls-1" d="M233.2,106.74h-15.19c0-1-.05-2.08-.13-3.24h15.16c.1,1.16.16,2.24.16,3.24Z"/><path class="cls-1" d="M232.03,96.5h-14.93c-.22-1.55-.49-3.19-.79-4.94l14.67-.04c.41,1.76.76,3.41,1.05,4.98Z"/><path class="cls-1" d="M257.41,101.5h-15.31c-.1-1.03-.19-2.02-.29-3h15.42l.07.61.11,2.39Z"/><path class="cls-1" d="M257.67,106.81h-15.11c-.09-1.13-.19-2.23-.28-3.31h15.23l.16,3.31Z"/><path class="cls-1" d="M280.3,70.52c-.26-1.48-.98-4.72-2.16-9.7-1.19-4.98-2.34-9.25-3.46-12.81-1.13-3.55-2.73-6.38-4.82-8.46-2.09-2.09-6.66-3.13-13.7-3.13h-27.83c.07.1.6,1.78,1.58,5.06,1.06,3.56,2.35,7.92,3.87,13.07,1.51,5.15,2.89,10.79,4.13,16.93,1.25,6.14,2.18,11.73,2.8,16.78.3,2.47.61,5.22.91,8.24h15.39l-1.44-12.76c12.79.16,19.8-.05,21.04-.63,1.23-.57,2.26-1.62,3.09-3.14.82-1.53,1.19-3.11,1.11-4.76-.08-1.64-.25-3.2-.51-4.69ZM266.57,68.45c-.11,1.02-.3,1.52-.59,1.52h-12.76c-.27-.57-.87-2.88-1.82-6.94-.95-4.05-2.23-8.57-3.83-13.55v-.27c6.98-.21,11.06-.17,12.25.11,1.18.29,2.05,1.35,2.59,3.19.55,1.84,1.4,4.7,2.57,8.59,1.16,3.88,1.69,6.33,1.59,7.35Z"/><path class="cls-1" d="M305.34,96.5h-14.93c-.23-1.55-.49-3.19-.8-4.94l14.67-.04c.41,1.76.76,3.41,1.06,4.98Z"/><path class="cls-1" d="M306.13,101.5h-15.11c-.09-.95-.21-1.95-.34-3h15.01c.18,1.05.32,2.05.44,3Z"/><path class="cls-1" d="M306.51,106.74h-15.2c0-1-.05-2.08-.13-3.24h15.17c.1,1.16.15,2.24.16,3.24Z"/><path class="cls-1" d="M359.8,98.5c-.03,1.01-.15,1.86-.36,2.51-.05.17-.13.33-.19.49h-45.26c-.08-.19-.17-.38-.24-.57-.39-1.17-.59-1.97-.64-2.43h46.69Z"/><path class="cls-1" d="M358.19,103.5c-.34.48-.71.94-1.14,1.38-1.14,1.13-2.59,1.74-4.36,1.84-1.77.09-6.6.09-14.49,0-7.88-.1-13.19-.14-15.92-.14s-4.72-.59-5.96-1.78c-.44-.42-.82-.86-1.16-1.3h43.03Z"/><path class="cls-1" d="M359.55,93.95c-.39-3.26-.95-7.07-1.68-11.44-.73-4.37-1.82-9.62-3.26-15.74-1.44-6.13-3.06-12.02-4.85-17.66-1.79-5.65-3.69-9.31-5.69-10.99-1.99-1.68-4.64-2.57-7.94-2.68-3.29-.1-8.28-.16-14.96-.16s-11.2.06-13.53.16c-2.34.11-3.98.67-4.93,1.68-.95,1.02-1.26,2.36-.94,4.01.32,1.66,1.39,5.65,3.23,11.99,1.83,6.33,3.17,11.48,4.01,15.45.85,3.96,1.5,7.52,1.98,10.69.44,2.97,1.09,8.72,1.93,17.24h46.86c-.05-.78-.12-1.63-.23-2.55ZM343.81,89.59c-.07.92-.27,1.74-.6,2.46-.33.72-.8,1.11-1.41,1.17-.6.07-2.28.07-5.03,0-2.75-.06-4.61-.09-5.56-.09s-1.69-.38-2.2-1.14c-.5-.75-.88-1.57-1.12-2.46-.25-.89-.4-1.45-.44-1.68-.92-6.05-1.57-10.08-1.93-12.09-.36-2.01-.81-4.27-1.36-6.78-.54-2.52-1.33-5.79-2.37-9.82-1.05-4.03-1.67-6.56-1.89-7.61-.22-1.04-.2-1.89.06-2.54.26-.65.8-1.01,1.61-1.07.81-.07,2.38-.1,4.71-.1s4.07.03,5.22.1c1.15.06,2.13.63,2.94,1.7.8,1.07,1.69,3.39,2.67,6.98.98,3.58,1.91,7.33,2.81,11.22.89,3.9,1.61,7.23,2.15,9.99.53,2.77.97,5.19,1.32,7.26.35,2.07.49,3.57.42,4.5Z"/><path class="cls-1" d="M385.1,106.74h-15.2c-.01-1-.05-2.08-.13-3.24h15.17c.1,1.16.15,2.24.16,3.24Z"/><path class="cls-1" d="M383.92,96.5h-14.92c-.23-1.55-.49-3.19-.8-4.94l14.67-.04c.41,1.76.76,3.41,1.05,4.98Z"/><path class="cls-1" d="M384.72,101.5h-15.12c-.09-.95-.2-1.95-.33-3h15.01c.18,1.05.32,2.05.44,3Z"/><path class="cls-1" d="M438.73,90.27c-.33-1.77-1.15-5.85-2.46-12.24-1.31-6.39-2.66-11.93-4.05-16.64-1.39-4.71-2.69-8.43-3.9-11.19-1.22-2.75-2.38-5.06-3.48-6.94-1.1-1.87-2.15-3.25-3.14-4.12-.98-.88-2.1-1.52-3.33-1.92-1.24-.4-8.17-.89-20.79-1.47h-17.36l.43.86c2.49,8.66,4.6,15.99,6.32,21.98,1.72,6,3.04,11.3,3.97,15.9.92,4.6,1.8,9.03,2.64,13.28.44,2.28.88,5.2,1.31,8.73h44.13c.04-.45.09-.91.11-1.36.06-1.47-.08-3.1-.4-4.87ZM423.42,88.34c-.28,1-.84,1.68-1.68,2.05-.85.36-4.83.55-11.96.55-.19-2.74-.53-5.48-1.04-8.22-.5-2.73-1.15-5.65-1.94-8.76-.79-3.1-1.56-5.88-2.3-8.33-.74-2.45-1.5-4.77-2.26-6.96s-1.96-5.38-3.61-9.58c4.26,0,7.33.09,9.22.27,1.88.19,3.3.79,4.25,1.8.94,1.02,1.85,2.39,2.7,4.11.85,1.72,1.87,4.13,3.04,7.23,1.18,3.11,2.12,6.27,2.83,9.49.71,3.22,1.41,6.5,2.11,9.83.71,3.34.92,5.51.64,6.52Z"/><path class="cls-1" d="M438.77,98.5c-.06.41-.11.8-.18,1.22-.13.65-.3,1.23-.51,1.78h-42.64c-.1-1.04-.21-2.04-.32-3h43.65Z"/><path class="cls-1" d="M436.97,103.5s-.02.03-.04.05c-.8.98-1.96,1.76-3.49,2.35-1.52.58-14.01.97-37.47,1.15-.11-1.23-.22-2.41-.33-3.55h41.33Z"/><path class="cls-1" d="M463.16,106.74h-15.2c0-1-.05-2.08-.13-3.24h15.17c.1,1.16.16,2.24.16,3.24Z"/><path class="cls-1" d="M462.78,101.5h-15.11c-.09-.95-.21-1.95-.34-3h15.01c.18,1.05.32,2.05.44,3Z"/><path class="cls-1" d="M461.99,96.5h-14.93c-.23-1.55-.49-3.19-.8-4.94l14.68-.04c.41,1.76.75,3.41,1.05,4.98Z"/><path class="cls-1" d="M175.34,125.72h-6.17l-1.56,4.44h-2.03l5.71-15.5h1.91l5.71,15.5h-2.03l-1.56-4.44ZM169.75,124.08h5.03l-2.48-7.07h-.06l-2.48,7.07Z"/><path class="cls-1" d="M184.39,118.79c2.31,0,4.01,1.38,4.09,3.27h-1.78c-.13-1.07-1-1.74-2.37-1.74s-2.27.68-2.27,1.65c0,.77.59,1.29,1.86,1.61l1.73.42c2.26.57,3.07,1.39,3.07,3.03,0,1.94-1.84,3.32-4.45,3.32-2.45,0-4.16-1.33-4.35-3.31h1.87c.2,1.16,1.08,1.78,2.6,1.78s2.45-.64,2.45-1.65c0-.79-.46-1.22-1.72-1.56l-1.97-.5c-1.97-.5-2.93-1.51-2.93-3.04,0-1.91,1.71-3.28,4.17-3.28Z"/><path class="cls-1" d="M193.12,116.29v2.7h2.17v1.54h-2.17v6.64c0,1.02.43,1.48,1.39,1.48.21,0,.64-.03.77-.05v1.57c-.23.05-.74.09-1.18.09-2.05,0-2.85-.84-2.85-2.99v-6.74h-1.67v-1.54h1.67v-2.7h1.87Z"/><path class="cls-1" d="M197.28,118.99h1.76v1.83h.04c.37-1.24,1.4-2.02,2.71-2.02.32,0,.6.05.75.08v1.82c-.15-.05-.55-.11-1-.11-1.45,0-2.4,1.04-2.4,2.62v6.96h-1.87v-11.17Z"/><path class="cls-1" d="M202.97,124.57c0-3.57,2.08-5.78,5.18-5.78s5.17,2.21,5.17,5.78-2.08,5.78-5.17,5.78-5.18-2.22-5.18-5.78ZM211.42,124.57c0-2.63-1.29-4.14-3.27-4.14s-3.28,1.5-3.28,4.14,1.3,4.14,3.28,4.14,3.27-1.5,3.27-4.14Z"/><path class="cls-1" d="M215.2,118.99h1.76v1.78h.04c.62-1.2,1.82-1.98,3.54-1.98,2.45,0,3.87,1.58,3.87,4.11v7.25h-1.87v-6.92c0-1.8-.85-2.79-2.57-2.79s-2.91,1.25-2.91,3.14v6.57h-1.87v-11.17Z"/><path class="cls-1" d="M226.24,124.57c0-3.57,2.08-5.78,5.18-5.78s5.17,2.21,5.17,5.78-2.08,5.78-5.17,5.78-5.18-2.22-5.18-5.78ZM234.68,124.57c0-2.63-1.29-4.14-3.27-4.14s-3.28,1.5-3.28,4.14,1.3,4.14,3.28,4.14,3.27-1.5,3.27-4.14Z"/><path class="cls-1" d="M238.46,118.99h1.76v1.78h.04c.53-1.18,1.67-1.98,3.17-1.98s2.65.77,3.14,2.13h.04c.62-1.33,1.93-2.13,3.5-2.13,2.21,0,3.64,1.44,3.64,3.65v7.71h-1.87v-7.28c0-1.53-.85-2.43-2.32-2.43s-2.52,1.1-2.52,2.61v7.1h-1.87v-7.49c0-1.34-.9-2.22-2.29-2.22-1.48,0-2.56,1.16-2.56,2.71v7h-1.87v-11.17Z"/><path class="cls-1" d="M256.25,134.27v-1.57c.2.04.49.05.73.05,1.04,0,1.62-.5,2.05-1.8l.26-.78-4.12-11.18h2l3.09,9.3h.03l3.09-9.3h1.97l-4.39,11.96c-.96,2.61-1.88,3.39-3.9,3.39-.23,0-.6-.02-.81-.06Z"/><path class="cls-1" d="M277.16,114.66c2.91,0,4.96,2.04,4.96,4.97s-2.07,5-4.98,5h-3.58v5.53h-1.93v-15.5h5.53ZM273.56,122.91h3.09c2.21,0,3.48-1.21,3.48-3.28s-1.26-3.25-3.48-3.25h-3.09v6.53Z"/><path class="cls-1" d="M283.92,115.95c0-.64.53-1.16,1.16-1.16s1.17.52,1.17,1.16-.53,1.16-1.17,1.16-1.16-.53-1.16-1.16ZM284.14,118.99h1.87v11.17h-1.87v-11.17Z"/><path class="cls-1" d="M295.99,122.65c-.27-1.21-1.21-2.21-2.86-2.21-1.93,0-3.24,1.6-3.24,4.14s1.33,4.14,3.27,4.14c1.53,0,2.52-.81,2.85-2.15h1.84c-.29,2.22-2.16,3.79-4.69,3.79-3.09,0-5.16-2.18-5.16-5.78s2.05-5.78,5.13-5.78c2.79,0,4.46,1.85,4.69,3.86h-1.83Z"/><path class="cls-1" d="M302.03,116.29v2.7h2.17v1.54h-2.17v6.64c0,1.02.43,1.48,1.39,1.48.21,0,.64-.03.77-.05v1.57c-.23.05-.74.09-1.18.09-2.05,0-2.85-.84-2.85-2.99v-6.74h-1.67v-1.54h1.67v-2.7h1.87Z"/><path class="cls-1" d="M315.36,130.16h-1.77v-1.82h-.04c-.67,1.29-1.83,2.01-3.54,2.01-2.44,0-3.87-1.58-3.87-4.11v-7.25h1.87v6.92c0,1.82.85,2.79,2.58,2.79,1.82,0,2.91-1.25,2.91-3.15v-6.56h1.87v11.17Z"/><path class="cls-1" d="M317.77,118.99h1.76v1.83h.04c.37-1.24,1.4-2.02,2.71-2.02.32,0,.6.05.75.08v1.82c-.15-.05-.55-.11-1-.11-1.45,0-2.4,1.04-2.4,2.62v6.96h-1.87v-11.17Z"/><path class="cls-1" d="M333.26,126.96c-.32,1.96-2.21,3.39-4.65,3.39-3.2,0-5.15-2.22-5.15-5.74s1.98-5.82,5.06-5.82,4.88,2.19,4.88,5.58v.71h-8.01v.11c0,2.14,1.26,3.54,3.27,3.54,1.42,0,2.46-.72,2.77-1.77h1.84ZM325.4,123.62h6.07c-.04-1.87-1.21-3.2-2.98-3.2s-2.98,1.34-3.09,3.2Z"/><path class="cls-1" d="M353.77,122.42c0,4.92-2.75,8-7.14,8s-7.14-3.08-7.14-8,2.75-8.01,7.14-8.01,7.14,3.09,7.14,8.01ZM341.47,122.42c0,3.81,1.99,6.22,5.16,6.22s5.16-2.41,5.16-6.22-1.99-6.23-5.16-6.23-5.16,2.41-5.16,6.23Z"/><path class="cls-1" d="M356.49,120.52h-1.56v-1.54h1.56v-1.25c0-2.15,1-3.17,3.06-3.17.42,0,.87.04,1.14.09v1.51c-.23-.03-.54-.06-.85-.06-1.01,0-1.49.54-1.49,1.64v1.24h2.29v1.54h-2.28v9.64h-1.87v-9.64Z"/><path class="cls-1" d="M369.55,116.29v2.7h2.17v1.54h-2.17v6.64c0,1.02.43,1.48,1.39,1.48.21,0,.64-.03.77-.05v1.57c-.23.05-.74.09-1.18.09-2.05,0-2.85-.84-2.85-2.99v-6.74h-1.67v-1.54h1.67v-2.7h1.87Z"/><path class="cls-1" d="M373.81,114.66h1.87v6.11h.04c.62-1.25,1.85-1.98,3.54-1.98,2.45,0,3.93,1.65,3.93,4.15v7.22h-1.87v-6.88c0-1.77-.89-2.84-2.64-2.84-1.86,0-3.01,1.27-3.01,3.2v6.51h-1.87v-15.5Z"/><path class="cls-1" d="M394.82,126.96c-.32,1.96-2.21,3.39-4.65,3.39-3.2,0-5.15-2.22-5.15-5.74s1.98-5.82,5.06-5.82,4.88,2.19,4.88,5.58v.71h-8.01v.11c0,2.14,1.26,3.54,3.27,3.54,1.42,0,2.46-.72,2.77-1.77h1.84ZM386.95,123.62h6.07c-.04-1.87-1.21-3.2-2.98-3.2s-2.98,1.34-3.09,3.2Z"/><path class="cls-1" d="M406.85,114.66c4.6,0,7.32,2.87,7.32,7.75s-2.71,7.76-7.32,7.76h-5.21v-15.5h5.21ZM403.57,128.42h3.15c3.51,0,5.47-2.15,5.47-5.99s-1.94-6.03-5.47-6.03h-3.15v12.02Z"/><path class="cls-1" d="M415.82,127c0-1.91,1.47-3.12,4.05-3.27l3.2-.18v-.93c0-1.36-.9-2.18-2.45-2.18-1.44,0-2.34.68-2.58,1.77h-1.8c.13-1.93,1.78-3.42,4.43-3.42s4.28,1.42,4.28,3.64v7.72h-1.77v-1.92h-.04c-.67,1.28-2.08,2.12-3.59,2.12-2.22,0-3.72-1.34-3.72-3.35ZM423.07,125.92v-.91l-2.99.18c-1.5.1-2.36.76-2.36,1.82s.89,1.76,2.23,1.76c1.76,0,3.12-1.24,3.12-2.85Z"/><path class="cls-1" d="M427.43,134.27v-1.57c.2.04.49.05.73.05,1.04,0,1.62-.5,2.05-1.8l.26-.78-4.12-11.18h2l3.09,9.3h.03l3.09-9.3h1.97l-4.39,11.96c-.96,2.61-1.88,3.39-3.9,3.39-.23,0-.6-.02-.81-.06Z"/></svg>